Wawa.ufo
<glyph name="period" format="2">
  <advance width="400"/>
  <unicode hex="002E"/>
  <outline>
    <contour>
      <point x="124" y="0" type="qcurve" smooth="yes"/>
      <point x="286" y="0" type="line" smooth="yes"/>
      <point x="332" y="0"/>
      <point x="372" y="40"/>
      <point x="372" y="80" type="qcurve" smooth="yes"/>
      <point x="372" y="280" type="line" smooth="yes"/>
      <point x="372" y="320"/>
      <point x="337" y="360"/>
      <point x="286" y="360" type="qcurve" smooth="yes"/>
      <point x="124" y="360" type="line" smooth="yes"/>
      <point x="67" y="360"/>
      <point x="32" y="320"/>
      <point x="32" y="280" type="qcurve" smooth="yes"/>
      <point x="32" y="80" type="line" smooth="yes"/>
      <point x="32" y="40"/>
      <point x="72" y="0"/>
    </contour>
  </outline>
</glyph>
<glyph name="slash" format="2">
  <advance width="690"/>
  <unicode hex="002F"/>
  <note>
slash
</note>
  <outline>
    <contour>
      <point x="8" y="36" type="qcurve" smooth="yes"/>
      <point x="8" y="20"/>
      <point x="34" y="-10"/>
      <point x="54" y="-10" type="qcurve" smooth="yes"/>
      <point x="214" y="-10" type="line" smooth="yes"/>
      <point x="272" y="-10"/>
      <point x="314" y="36"/>
      <point x="366" y="222"/>
      <point x="380" y="264"/>
      <point x="382" y="272" type="qcurve" smooth="yes"/>
      <point x="444" y="474"/>
      <point x="664" y="1274"/>
      <point x="682" y="1358" type="qcurve"/>
      <point x="684" y="1384" type="line" smooth="yes"/>
      <point x="684" y="1418"/>
      <point x="618" y="1430"/>
      <point x="564" y="1430" type="qcurve" smooth="yes"/>
      <point x="496" y="1430"/>
      <point x="436" y="1422"/>
      <point x="406" y="1394"/>
      <point x="400" y="1376" type="qcurve" smooth="yes"/>
      <point x="358" y="1250"/>
      <point x="150" y="534"/>
      <point x="112" y="418" type="qcurve" smooth="yes"/>
      <point x="74" y="298"/>
      <point x="8" y="52"/>
    </contour>
  </outline>
</glyph>
<glyph name="colon" format="2">
  <advance width="400"/>
  <unicode hex="003A"/>
  <outline>
    <contour>
      <point x="124" y="0" type="qcurve" smooth="yes"/>
      <point x="286" y="0" type="line" smooth="yes"/>
      <point x="332" y="0"/>
      <point x="372" y="40"/>
      <point x="372" y="80" type="qcurve" smooth="yes"/>
      <point x="372" y="280" type="line" smooth="yes"/>
      <point x="372" y="320"/>
      <point x="337" y="360"/>
      <point x="286" y="360" type="qcurve" smooth="yes"/>
      <point x="124" y="360" type="line" smooth="yes"/>
      <point x="67" y="360"/>
      <point x="32" y="320"/>
      <point x="32" y="280" type="qcurve" smooth="yes"/>
      <point x="32" y="80" type="line" smooth="yes"/>
      <point x="32" y="40"/>
      <point x="72" y="0"/>
    </contour>
    <contour>
      <point x="120" y="900" type="qcurve" smooth="yes"/>
      <point x="290" y="900" type="line" smooth="yes"/>
      <point x="332" y="900"/>
      <point x="370" y="940"/>
      <point x="370" y="980" type="qcurve" smooth="yes"/>
      <point x="370" y="1180" type="line" smooth="yes"/>
      <point x="370" y="1220"/>
      <point x="337" y="1260"/>
      <point x="290" y="1260" type="qcurve" smooth="yes"/>
      <point x="120" y="1260" type="line" smooth="yes"/>
      <point x="67" y="1260"/>
      <point x="30" y="1220"/>
      <point x="30" y="1180" type="qcurve" smooth="yes"/>
      <point x="30" y="980" type="line" smooth="yes"/>
      <point x="30" y="940"/>
      <point x="72" y="900"/>
    </contour>
  </outline>
</glyph>
<glyph name="at" format="2">
  <advance width="1490"/>
  <unicode hex="0040"/>
  <note>
at
</note>
  <outline>
    <contour>
      <point x="120" y="170"/>
      <point x="22" y="430"/>
      <point x="22" y="648" type="qcurve" smooth="yes"/>
      <point x="22" y="676" type="line" smooth="yes"/>
      <point x="22" y="818"/>
      <point x="112" y="1090"/>
      <point x="296" y="1310"/>
      <point x="584" y="1440"/>
      <point x="770" y="1440" type="qcurve" smooth="yes"/>
      <point x="794" y="1440" type="line" smooth="yes"/>
      <point x="912" y="1438"/>
      <point x="1150" y="1368"/>
      <point x="1320" y="1228"/>
      <point x="1418" y="1068"/>
      <point x="1468" y="876"/>
      <point x="1468" y="772" type="qcurve" smooth="yes"/>
      <point x="1468" y="558"/>
      <point x="1370" y="280"/>
      <point x="1194" y="144"/>
      <point x="1078" y="134" type="qcurve" smooth="yes"/>
      <point x="1036" y="132" type="line" smooth="yes"/>
      <point x="956" y="132"/>
      <point x="852" y="202"/>
      <point x="828" y="284" type="qcurve"/>
      <point x="822" y="296" type="line"/>
      <point x="816" y="292" type="line" smooth="yes"/>
      <point x="772" y="264"/>
      <point x="638" y="264" type="qcurve" smooth="yes"/>
      <point x="560" y="264"/>
      <point x="448" y="354"/>
      <point x="386" y="520"/>
      <point x="386" y="624" type="qcurve" smooth="yes"/>
      <point x="386" y="730"/>
      <point x="426" y="884"/>
      <point x="504" y="990"/>
      <point x="628" y="1042"/>
      <point x="728" y="1042" type="qcurve" smooth="yes"/>
      <point x="756" y="1042"/>
      <point x="806" y="1034"/>
      <point x="842" y="1018"/>
      <point x="844" y="1018" type="qcurve" smooth="yes"/>
      <point x="856" y="1018"/>
      <point x="884" y="1068"/>
      <point x="906" y="1068" type="qcurve" smooth="yes"/>
      <point x="978" y="1068" type="line" smooth="yes"/>
      <point x="1016" y="1068"/>
      <point x="1044" y="1048"/>
      <point x="1050" y="1010"/>
      <point x="1050" y="1000" type="qcurve" smooth="yes"/>
      <point x="1050" y="954" type="line"/>
      <point x="1046" y="654" type="line" smooth="yes"/>
      <point x="1046" y="520"/>
      <point x="1062" y="380"/>
      <point x="1094" y="380" type="qcurve" smooth="yes"/>
      <point x="1132" y="380"/>
      <point x="1198" y="582"/>
      <point x="1198" y="788" type="qcurve" smooth="yes"/>
      <point x="1198" y="986"/>
      <point x="978" y="1200"/>
      <point x="782" y="1200" type="qcurve" smooth="yes"/>
      <point x="668" y="1200"/>
      <point x="488" y="1132"/>
      <point x="362" y="994"/>
      <point x="294" y="772"/>
      <point x="294" y="626" type="qcurve" smooth="yes"/>
      <point x="294" y="560"/>
      <point x="330" y="410"/>
      <point x="550" y="150"/>
      <point x="330" y="-70"/>
    </contour>
    <contour>
      <point x="734" y="810" type="qcurve" smooth="yes"/>
      <point x="694" y="810"/>
      <point x="650" y="752"/>
      <point x="650" y="660" type="qcurve" smooth="yes"/>
      <point x="650" y="558"/>
      <point x="694" y="492"/>
      <point x="734" y="492" type="qcurve" smooth="yes"/>
      <point x="776" y="492"/>
      <point x="820" y="558"/>
      <point x="820" y="660" type="qcurve" smooth="yes"/>
      <point x="820" y="752"/>
      <point x="776" y="810"/>
    </contour>
  </outline>
</glyph>
<glyph name="A" format="2">
  <advance width="1020"/>
  <unicode hex="0041"/>
  <outline>
    <contour>
      <point x="790" y="1280" type="qcurve" smooth="yes"/>
      <point x="775" y="1355"/>
      <point x="716" y="1400"/>
      <point x="660" y="1400" type="qcurve" smooth="yes"/>
      <point x="623" y="1400"/>
      <point x="550" y="1390"/>
      <point x="510" y="1390" type="qcurve" smooth="yes"/>
      <point x="463" y="1390"/>
      <point x="407" y="1400"/>
      <point x="360" y="1400" type="qcurve" smooth="yes"/>
      <point x="307" y="1400"/>
      <point x="262" y="1361"/>
      <point x="240" y="1280" type="qcurve" smooth="yes"/>
      <point x="212" y="1176"/>
      <point x="167" y="919"/>
      <point x="130" y="730" type="qcurve" smooth="yes"/>
      <point x="81" y="477"/>
      <point x="10" y="178"/>
      <point x="10" y="110" type="qcurve" smooth="yes"/>
      <point x="10" y="50"/>
      <point x="70" y="0"/>
      <point x="160" y="0" type="qcurve" smooth="yes"/>
      <point x="290" y="0"/>
      <point x="340" y="30"/>
      <point x="350" y="80" type="qcurve" smooth="yes"/>
      <point x="360" y="129"/>
      <point x="370" y="180"/>
      <point x="380" y="220" type="qcurve" smooth="yes"/>
      <point x="390" y="260"/>
      <point x="426" y="293"/>
      <point x="510" y="290" type="qcurve" smooth="yes"/>
      <point x="591" y="287"/>
      <point x="622" y="261"/>
      <point x="630" y="220" type="qcurve" smooth="yes"/>
      <point x="640" y="170"/>
      <point x="640" y="110"/>
      <point x="650" y="70" type="qcurve" smooth="yes"/>
      <point x="662" y="21"/>
      <point x="720" y="0"/>
      <point x="840" y="0" type="qcurve" smooth="yes"/>
      <point x="950" y="0"/>
      <point x="1010" y="50"/>
      <point x="1010" y="110" type="qcurve" smooth="yes"/>
      <point x="1010" y="190"/>
      <point x="948" y="477"/>
      <point x="900" y="730" type="qcurve" smooth="yes"/>
      <point x="860" y="942"/>
      <point x="808" y="1190"/>
    </contour>
    <contour>
      <point x="420" y="650"/>
      <point x="440" y="820"/>
      <point x="470" y="1000" type="qcurve" smooth="yes"/>
      <point x="477" y="1041"/>
      <point x="498" y="1080"/>
      <point x="510" y="1080" type="qcurve" smooth="yes"/>
      <point x="520" y="1080"/>
      <point x="534" y="1040"/>
      <point x="540" y="1000" type="qcurve" smooth="yes"/>
      <point x="560" y="860"/>
      <point x="580" y="650"/>
      <point x="580" y="620" type="qcurve" smooth="yes"/>
      <point x="580" y="600"/>
      <point x="550" y="590"/>
      <point x="500" y="590" type="qcurve" smooth="yes"/>
      <point x="450" y="590"/>
      <point x="420" y="600"/>
      <point x="420" y="620" type="qcurve" smooth="yes"/>
    </contour>
  </outline>
</glyph>
<glyph name="B" format="2">
  <advance width="1000"/>
  <unicode hex="0042"/>
  <outline>
    <contour>
      <point x="156" y="0" type="qcurve" smooth="yes"/>
      <point x="202" y="0"/>
      <point x="326" y="10"/>
      <point x="380" y="10" type="curve" smooth="yes"/>
      <point x="440" y="10"/>
      <point x="534" y="0"/>
      <point x="602" y="0" type="curve" smooth="yes"/>
      <point x="790" y="0"/>
      <point x="968" y="250"/>
      <point x="968" y="404" type="qcurve" smooth="yes"/>
      <point x="968" y="542"/>
      <point x="877" y="669"/>
      <point x="800" y="720" type="qcurve" smooth="yes"/>
      <point x="770" y="740"/>
      <point x="770" y="770"/>
      <point x="790" y="780" type="qcurve" smooth="yes"/>
      <point x="850" y="820"/>
      <point x="930" y="950"/>
      <point x="930" y="1040" type="qcurve" smooth="yes"/>
      <point x="930" y="1246"/>
      <point x="730" y="1400"/>
      <point x="630" y="1400" type="qcurve" smooth="yes"/>
      <point x="540" y="1400"/>
      <point x="459" y="1390"/>
      <point x="370" y="1390" type="curve" smooth="yes"/>
      <point x="296" y="1390"/>
      <point x="230" y="1400"/>
      <point x="160" y="1400" type="curve" smooth="yes"/>
      <point x="90" y="1400"/>
      <point x="40" y="1337"/>
      <point x="40" y="1270" type="qcurve" smooth="yes"/>
      <point x="40" y="1132"/>
      <point x="61" y="907"/>
      <point x="60" y="750" type="curve" smooth="yes"/>
      <point x="61" y="568"/>
      <point x="40" y="300"/>
      <point x="40" y="130" type="curve" smooth="yes"/>
      <point x="40" y="70"/>
      <point x="90" y="0"/>
    </contour>
    <contour>
      <point x="480" y="870" type="qcurve" smooth="yes"/>
      <point x="420" y="870"/>
      <point x="380" y="890"/>
      <point x="380" y="1000" type="qcurve" smooth="yes"/>
      <point x="380" y="1100"/>
      <point x="410" y="1130"/>
      <point x="460" y="1130" type="qcurve" smooth="yes"/>
      <point x="520" y="1130"/>
      <point x="580" y="1060"/>
      <point x="580" y="1000" type="qcurve" smooth="yes"/>
      <point x="580" y="920"/>
      <point x="530" y="870"/>
    </contour>
    <contour>
      <point x="480" y="270" type="qcurve" smooth="yes"/>
      <point x="420" y="270"/>
      <point x="380" y="330"/>
      <point x="380" y="440" type="qcurve" smooth="yes"/>
      <point x="380" y="540"/>
      <point x="410" y="620"/>
      <point x="460" y="620" type="qcurve" smooth="yes"/>
      <point x="540" y="620"/>
      <point x="600" y="550"/>
      <point x="600" y="440" type="qcurve" smooth="yes"/>
      <point x="600" y="330"/>
      <point x="550" y="270"/>
    </contour>
  </outline>
</glyph>
<glyph name="C" format="2">
  <advance width="790"/>
  <unicode hex="0043"/>
  <outline>
    <contour>
      <point x="20" y="720" type="qcurve" smooth="yes"/>
      <point x="20" y="322"/>
      <point x="343" y="-10"/>
      <point x="580" y="-10" type="qcurve" smooth="yes"/>
      <point x="708" y="-10"/>
      <point x="770" y="42"/>
      <point x="770" y="120" type="qcurve" smooth="yes"/>
      <point x="770" y="274"/>
      <point x="743" y="330"/>
      <point x="710" y="330" type="qcurve" smooth="yes"/>
      <point x="688" y="330"/>
      <point x="597" y="300"/>
      <point x="570" y="300" type="qcurve" smooth="yes"/>
      <point x="480" y="300"/>
      <point x="370" y="485"/>
      <point x="370" y="720" type="qcurve" smooth="yes"/>
      <point x="370" y="971"/>
      <point x="481" y="1140"/>
      <point x="550" y="1140" type="qcurve" smooth="yes"/>
      <point x="580" y="1140"/>
      <point x="670" y="1130"/>
      <point x="690" y="1130" type="qcurve" smooth="yes"/>
      <point x="732" y="1130"/>
      <point x="770" y="1160"/>
      <point x="770" y="1250" type="qcurve" smooth="yes"/>
      <point x="770" y="1354"/>
      <point x="710" y="1410"/>
      <point x="550" y="1410" type="qcurve" smooth="yes"/>
      <point x="342" y="1410"/>
      <point x="20" y="1057"/>
    </contour>
  </outline>
</glyph>
<glyph name="D" format="2">
  <advance width="990"/>
  <unicode hex="0044"/>
  <outline>
    <contour>
      <point x="156" y="0" type="qcurve" smooth="yes"/>
      <point x="202" y="0"/>
      <point x="326" y="10"/>
      <point x="380" y="10" type="curve" smooth="yes"/>
      <point x="440" y="10"/>
      <point x="514" y="0"/>
      <point x="580" y="0" type="curve" smooth="yes"/>
      <point x="770" y="0"/>
      <point x="970" y="394"/>
      <point x="970" y="740" type="qcurve" smooth="yes"/>
      <point x="970" y="1093"/>
      <point x="716" y="1400"/>
      <point x="560" y="1400" type="qcurve" smooth="yes"/>
      <point x="505" y="1400"/>
      <point x="424" y="1390"/>
      <point x="370" y="1390" type="curve" smooth="yes"/>
      <point x="296" y="1390"/>
      <point x="230" y="1400"/>
      <point x="160" y="1400" type="curve" smooth="yes"/>
      <point x="90" y="1400"/>
      <point x="40" y="1337"/>
      <point x="40" y="1270" type="qcurve" smooth="yes"/>
      <point x="40" y="1132"/>
      <point x="51" y="907"/>
      <point x="50" y="750" type="curve" smooth="yes"/>
      <point x="51" y="568"/>
      <point x="40" y="300"/>
      <point x="40" y="130" type="curve" smooth="yes"/>
      <point x="40" y="70"/>
      <point x="90" y="0"/>
    </contour>
    <contour>
      <point x="450" y="280" type="qcurve" smooth="yes"/>
      <point x="397" y="277"/>
      <point x="370" y="301"/>
      <point x="370" y="740" type="qcurve" smooth="yes"/>
      <point x="370" y="1099"/>
      <point x="387" y="1130"/>
      <point x="430" y="1130" type="qcurve" smooth="yes"/>
      <point x="496" y="1130"/>
      <point x="590" y="969"/>
      <point x="590" y="740" type="qcurve" smooth="yes"/>
      <point x="590" y="546"/>
      <point x="527" y="285"/>
    </contour>
  </outline>
</glyph>
<glyph name="E" format="2">
  <advance width="800"/>
  <unicode hex="0045"/>
  <outline>
    <contour>
      <point x="170" y="0" type="qcurve" smooth="yes"/>
      <point x="249" y="0"/>
      <point x="341" y="10"/>
      <point x="420" y="10" type="qcurve" smooth="yes"/>
      <point x="507" y="10"/>
      <point x="605" y="0"/>
      <point x="680" y="0" type="qcurve" smooth="yes"/>
      <point x="723" y="0"/>
      <point x="762" y="40"/>
      <point x="760" y="150" type="qcurve" smooth="yes"/>
      <point x="762" y="260"/>
      <point x="722" y="300"/>
      <point x="670" y="300" type="qcurve" smooth="yes"/>
      <point x="636" y="300"/>
      <point x="562" y="290"/>
      <point x="520" y="290" type="qcurve" smooth="yes"/>
      <point x="429" y="289"/>
      <point x="382" y="348"/>
      <point x="380" y="460" type="qcurve" smooth="yes"/>
      <point x="382" y="558"/>
      <point x="412" y="600"/>
      <point x="470" y="600" type="qcurve" smooth="yes"/>
      <point x="531" y="600"/>
      <point x="611" y="590"/>
      <point x="650" y="590" type="qcurve" smooth="yes"/>
      <point x="705" y="590"/>
      <point x="742" y="650"/>
      <point x="740" y="720" type="qcurve" smooth="yes"/>
      <point x="742" y="820"/>
      <point x="702" y="870"/>
      <point x="670" y="870" type="qcurve" smooth="yes"/>
      <point x="646" y="870"/>
      <point x="552" y="860"/>
      <point x="470" y="860" type="qcurve" smooth="yes"/>
      <point x="412" y="860"/>
      <point x="382" y="910"/>
      <point x="380" y="1000" type="qcurve" smooth="yes"/>
      <point x="382" y="1070"/>
      <point x="423" y="1130"/>
      <point x="520" y="1130" type="qcurve" smooth="yes"/>
      <point x="579" y="1130"/>
      <point x="650" y="1120"/>
      <point x="710" y="1120" type="qcurve" smooth="yes"/>
      <point x="745" y="1120"/>
      <point x="772" y="1170"/>
      <point x="770" y="1250" type="qcurve" smooth="yes"/>
      <point x="772" y="1353"/>
      <point x="728" y="1400"/>
      <point x="670" y="1400" type="qcurve" smooth="yes"/>
      <point x="593" y="1400"/>
      <point x="498" y="1390"/>
      <point x="420" y="1390" type="qcurve" smooth="yes"/>
      <point x="334" y="1390"/>
      <point x="212" y="1400"/>
      <point x="160" y="1400" type="qcurve" smooth="yes"/>
      <point x="114" y="1400"/>
      <point x="56" y="1366"/>
      <point x="32" y="1298"/>
      <point x="30" y="1240" type="qcurve" smooth="yes"/>
      <point x="32" y="1118"/>
      <point x="52" y="905"/>
      <point x="50" y="730" type="qcurve" smooth="yes"/>
      <point x="52" y="565"/>
      <point x="26" y="287"/>
      <point x="30" y="160" type="qcurve" smooth="yes"/>
      <point x="29" y="90"/>
      <point x="95" y="0"/>
    </contour>
  </outline>
</glyph>
<glyph name="F" format="2">
  <advance width="750"/>
  <unicode hex="0046"/>
  <outline>
    <contour>
      <point x="220" y="0" type="qcurve" smooth="yes"/>
      <point x="320" y="0"/>
      <point x="390" y="60"/>
      <point x="390" y="150" type="qcurve" smooth="yes"/>
      <point x="390" y="210"/>
      <point x="380" y="400"/>
      <point x="380" y="440" type="qcurve" smooth="yes"/>
      <point x="380" y="520"/>
      <point x="420" y="570"/>
      <point x="460" y="570" type="qcurve" smooth="yes"/>
      <point x="490" y="570"/>
      <point x="570" y="560"/>
      <point x="620" y="560" type="qcurve" smooth="yes"/>
      <point x="687" y="560"/>
      <point x="720" y="605"/>
      <point x="720" y="700" type="qcurve" smooth="yes"/>
      <point x="720" y="810"/>
      <point x="680" y="850"/>
      <point x="620" y="850" type="qcurve" smooth="yes"/>
      <point x="570" y="850"/>
      <point x="500" y="840"/>
      <point x="460" y="840" type="qcurve" smooth="yes"/>
      <point x="410" y="840"/>
      <point x="380" y="881"/>
      <point x="380" y="990" type="qcurve" smooth="yes"/>
      <point x="380" y="1081"/>
      <point x="430" y="1130"/>
      <point x="500" y="1130" type="qcurve" smooth="yes"/>
      <point x="550" y="1130"/>
      <point x="620" y="1120"/>
      <point x="660" y="1120" type="qcurve" smooth="yes"/>
      <point x="720" y="1120"/>
      <point x="750" y="1150"/>
      <point x="750" y="1260" type="qcurve" smooth="yes"/>
      <point x="750" y="1360"/>
      <point x="710" y="1400"/>
      <point x="660" y="1400" type="qcurve" smooth="yes"/>
      <point x="590" y="1400"/>
      <point x="490" y="1390"/>
      <point x="400" y="1390" type="qcurve" smooth="yes"/>
      <point x="320" y="1390"/>
      <point x="240" y="1400"/>
      <point x="160" y="1400" type="qcurve" smooth="yes"/>
      <point x="93" y="1400"/>
      <point x="40" y="1323"/>
      <point x="40" y="1240" type="qcurve" smooth="yes"/>
      <point x="40" y="1120"/>
      <point x="60" y="884"/>
      <point x="60" y="690" type="qcurve" smooth="yes"/>
      <point x="60" y="525"/>
      <point x="40" y="240"/>
      <point x="40" y="150" type="qcurve" smooth="yes"/>
      <point x="40" y="50"/>
      <point x="90" y="0"/>
    </contour>
  </outline>
</glyph>
<glyph name="G" format="2">
  <advance width="1030"/>
  <unicode hex="0047"/>
  <outline>
    <contour>
      <point x="670" y="313"/>
      <point x="650" y="280"/>
      <point x="600" y="280" type="qcurve" smooth="yes"/>
      <point x="530" y="280"/>
      <point x="430" y="380"/>
      <point x="370" y="532"/>
      <point x="370" y="710" type="qcurve" smooth="yes"/>
      <point x="370" y="887"/>
      <point x="501" y="1140"/>
      <point x="650" y="1140" type="qcurve" smooth="yes"/>
      <point x="712" y="1140"/>
      <point x="826" y="1110"/>
      <point x="870" y="1110" type="qcurve" smooth="yes"/>
      <point x="907" y="1110"/>
      <point x="960" y="1151"/>
      <point x="960" y="1250" type="qcurve" smooth="yes"/>
      <point x="960" y="1322"/>
      <point x="892" y="1367"/>
      <point x="840" y="1380" type="qcurve" smooth="yes"/>
      <point x="790" y="1392"/>
      <point x="683" y="1400"/>
      <point x="630" y="1400" type="qcurve" smooth="yes"/>
      <point x="385" y="1400"/>
      <point x="10" y="1043"/>
      <point x="10" y="730" type="qcurve" smooth="yes"/>
      <point x="10" y="550"/>
      <point x="110" y="270"/>
      <point x="270" y="90"/>
      <point x="520" y="-10"/>
      <point x="680" y="-10" type="qcurve" smooth="yes"/>
      <point x="860" y="-10"/>
      <point x="990" y="90"/>
      <point x="990" y="190" type="qcurve" smooth="yes"/>
      <point x="990" y="234"/>
      <point x="980" y="360"/>
      <point x="980" y="450" type="qcurve" smooth="yes"/>
      <point x="980" y="562"/>
      <point x="990" y="652"/>
      <point x="990" y="740" type="qcurve" smooth="yes"/>
      <point x="990" y="800"/>
      <point x="951" y="880"/>
      <point x="910" y="880" type="qcurve" smooth="yes"/>
      <point x="858" y="880"/>
      <point x="806" y="870"/>
      <point x="760" y="870" type="qcurve" smooth="yes"/>
      <point x="690" y="870"/>
      <point x="655" y="880"/>
      <point x="620" y="880" type="qcurve" smooth="yes"/>
      <point x="560" y="880"/>
      <point x="520" y="842"/>
      <point x="520" y="750" type="qcurve" smooth="yes"/>
      <point x="520" y="630"/>
      <point x="551" y="600"/>
      <point x="590" y="600" type="qcurve" smooth="yes"/>
      <point x="630" y="600"/>
      <point x="670" y="570"/>
      <point x="670" y="540" type="qcurve" smooth="yes"/>
      <point x="670" y="531"/>
      <point x="670" y="490"/>
      <point x="670" y="450" type="qcurve" smooth="yes"/>
      <point x="670" y="420"/>
      <point x="670" y="359"/>
      <point x="670" y="340" type="qcurve" smooth="yes"/>
    </contour>
  </outline>
</glyph>
<glyph name="H" format="2">
  <advance width="980"/>
  <unicode hex="0048"/>
  <outline>
    <contour>
      <point x="200" y="0" type="qcurve" smooth="yes"/>
      <point x="317" y="0"/>
      <point x="390" y="70"/>
      <point x="390" y="150" type="qcurve" smooth="yes"/>
      <point x="390" y="212"/>
      <point x="380" y="345"/>
      <point x="380" y="410" type="qcurve" smooth="yes"/>
      <point x="380" y="520"/>
      <point x="410" y="590"/>
      <point x="490" y="590" type="qcurve" smooth="yes"/>
      <point x="570" y="590"/>
      <point x="610" y="540"/>
      <point x="610" y="410" type="qcurve" smooth="yes"/>
      <point x="610" y="350"/>
      <point x="600" y="212"/>
      <point x="600" y="150" type="qcurve" smooth="yes"/>
      <point x="600" y="50"/>
      <point x="683" y="0"/>
      <point x="780" y="0" type="qcurve" smooth="yes"/>
      <point x="883" y="0"/>
      <point x="940" y="80"/>
      <point x="940" y="160" type="qcurve" smooth="yes"/>
      <point x="940" y="300"/>
      <point x="920" y="540"/>
      <point x="920" y="730" type="qcurve" smooth="yes"/>
      <point x="920" y="900"/>
      <point x="940" y="1140"/>
      <point x="940" y="1240" type="qcurve" smooth="yes"/>
      <point x="940" y="1340"/>
      <point x="872" y="1400"/>
      <point x="760" y="1400" type="qcurve" smooth="yes"/>
      <point x="656" y="1400"/>
      <point x="600" y="1333"/>
      <point x="600" y="1240" type="qcurve" smooth="yes"/>
      <point x="600" y="1188"/>
      <point x="610" y="1090"/>
      <point x="610" y="1030" type="qcurve" smooth="yes"/>
      <point x="610" y="938"/>
      <point x="564" y="890"/>
      <point x="490" y="890" type="qcurve" smooth="yes"/>
      <point x="421" y="890"/>
      <point x="370" y="952"/>
      <point x="370" y="1030" type="qcurve" smooth="yes"/>
      <point x="370" y="1080"/>
      <point x="380" y="1180"/>
      <point x="380" y="1240" type="qcurve" smooth="yes"/>
      <point x="380" y="1333"/>
      <point x="326" y="1400"/>
      <point x="200" y="1400" type="qcurve" smooth="yes"/>
      <point x="96" y="1400"/>
      <point x="40" y="1333"/>
      <point x="40" y="1240" type="qcurve" smooth="yes"/>
      <point x="40" y="1150"/>
      <point x="60" y="908"/>
      <point x="60" y="750" type="qcurve" smooth="yes"/>
      <point x="60" y="590"/>
      <point x="39" y="315"/>
      <point x="40" y="160" type="qcurve" smooth="yes"/>
      <point x="34" y="65"/>
      <point x="95" y="0"/>
    </contour>
  </outline>
</glyph>
<glyph name="I" format="2">
  <advance width="420"/>
  <unicode hex="0049"/>
  <outline>
    <contour>
      <point x="210" y="0" type="qcurve" smooth="yes"/>
      <point x="310" y="0"/>
      <point x="380" y="50"/>
      <point x="380" y="140" type="qcurve" smooth="yes"/>
      <point x="380" y="280"/>
      <point x="360" y="543"/>
      <point x="360" y="700" type="qcurve" smooth="yes"/>
      <point x="360" y="850"/>
      <point x="380" y="1100"/>
      <point x="380" y="1230" type="qcurve" smooth="yes"/>
      <point x="380" y="1341"/>
      <point x="300" y="1400"/>
      <point x="210" y="1400" type="qcurve" smooth="yes"/>
      <point x="120" y="1400"/>
      <point x="40" y="1347"/>
      <point x="40" y="1260" type="qcurve" smooth="yes"/>
      <point x="40" y="1140"/>
      <point x="60" y="870"/>
      <point x="60" y="700" type="qcurve" smooth="yes"/>
      <point x="60" y="544"/>
      <point x="40" y="260"/>
      <point x="40" y="140" type="qcurve" smooth="yes"/>
      <point x="40" y="50"/>
      <point x="110" y="0"/>
    </contour>
  </outline>
</glyph>
<glyph name="J" format="2">
  <advance width="600"/>
  <unicode hex="004A"/>
  <outline>
    <contour>
      <point x="240" y="-10" type="qcurve" smooth="yes"/>
      <point x="395" y="-10"/>
      <point x="580" y="163"/>
      <point x="580" y="270" type="qcurve" smooth="yes"/>
      <point x="580" y="370"/>
      <point x="560" y="744"/>
      <point x="560" y="830" type="qcurve" smooth="yes"/>
      <point x="560" y="910"/>
      <point x="570" y="1150"/>
      <point x="570" y="1240" type="qcurve" smooth="yes"/>
      <point x="570" y="1328"/>
      <point x="500" y="1400"/>
      <point x="390" y="1400" type="qcurve" smooth="yes"/>
      <point x="296" y="1400"/>
      <point x="220" y="1341"/>
      <point x="220" y="1240" type="qcurve" smooth="yes"/>
      <point x="220" y="1080"/>
      <point x="240" y="879"/>
      <point x="240" y="780" type="qcurve" smooth="yes"/>
      <point x="240" y="339"/>
      <point x="199" y="300"/>
      <point x="170" y="300" type="qcurve" smooth="yes"/>
      <point x="148" y="300"/>
      <point x="106" y="320"/>
      <point x="80" y="320" type="qcurve" smooth="yes"/>
      <point x="47" y="320"/>
      <point x="20" y="270"/>
      <point x="20" y="170" type="qcurve" smooth="yes"/>
      <point x="20" y="50"/>
      <point x="90" y="-10"/>
    </contour>
  </outline>
</glyph>
<glyph name="K" format="2">
  <advance width="980"/>
  <unicode hex="004B"/>
  <outline>
    <contour>
      <point x="960" y="113"/>
      <point x="660" y="750"/>
      <point x="660" y="800" type="qcurve" smooth="yes"/>
      <point x="660" y="830"/>
      <point x="940" y="1287"/>
      <point x="940" y="1350" type="qcurve" smooth="yes"/>
      <point x="940" y="1380"/>
      <point x="900" y="1400"/>
      <point x="780" y="1400" type="qcurve" smooth="yes"/>
      <point x="584" y="1400"/>
      <point x="506" y="1039"/>
      <point x="431" y="910"/>
      <point x="400" y="910" type="qcurve" smooth="yes"/>
      <point x="380" y="910"/>
      <point x="360" y="935"/>
      <point x="360" y="990" type="qcurve" smooth="yes"/>
      <point x="360" y="1051"/>
      <point x="380" y="1219"/>
      <point x="380" y="1290" type="qcurve" smooth="yes"/>
      <point x="380" y="1339"/>
      <point x="327" y="1400"/>
      <point x="210" y="1400" type="qcurve" smooth="yes"/>
      <point x="90" y="1400"/>
      <point x="30" y="1350"/>
      <point x="30" y="1290" type="qcurve" smooth="yes"/>
      <point x="30" y="1157"/>
      <point x="50" y="823"/>
      <point x="50" y="730" type="qcurve" smooth="yes"/>
      <point x="50" y="593"/>
      <point x="30" y="201"/>
      <point x="30" y="110" type="qcurve" smooth="yes"/>
      <point x="30" y="40"/>
      <point x="90" y="0"/>
      <point x="200" y="0" type="qcurve" smooth="yes"/>
      <point x="290" y="0"/>
      <point x="370" y="30"/>
      <point x="370" y="90" type="qcurve" smooth="yes"/>
      <point x="370" y="186"/>
      <point x="350" y="349"/>
      <point x="350" y="440" type="qcurve" smooth="yes"/>
      <point x="350" y="549"/>
      <point x="383" y="590"/>
      <point x="400" y="590" type="qcurve" smooth="yes"/>
      <point x="424" y="590"/>
      <point x="538" y="332"/>
      <point x="590" y="90" type="qcurve" smooth="yes"/>
      <point x="601" y="40"/>
      <point x="693" y="0"/>
      <point x="790" y="0" type="qcurve" smooth="yes"/>
      <point x="908" y="0"/>
      <point x="960" y="18"/>
      <point x="960" y="60" type="qcurve" smooth="yes"/>
    </contour>
  </outline>
</glyph>
<glyph name="L" format="2">
  <advance width="770"/>
  <unicode hex="004C"/>
  <outline>
    <contour>
      <point x="170" y="0" type="qcurve" smooth="yes"/>
      <point x="249" y="0"/>
      <point x="341" y="10"/>
      <point x="420" y="10" type="qcurve" smooth="yes"/>
      <point x="507" y="10"/>
      <point x="612" y="0"/>
      <point x="680" y="0" type="qcurve" smooth="yes"/>
      <point x="723" y="0"/>
      <point x="762" y="54"/>
      <point x="760" y="150" type="qcurve" smooth="yes"/>
      <point x="758" y="260"/>
      <point x="722" y="310"/>
      <point x="670" y="310" type="qcurve" smooth="yes"/>
      <point x="622" y="310"/>
      <point x="534" y="290"/>
      <point x="460" y="290" type="qcurve" smooth="yes"/>
      <point x="415" y="290"/>
      <point x="362" y="352"/>
      <point x="360" y="730" type="qcurve" smooth="yes"/>
      <point x="359" y="828"/>
      <point x="388" y="1150"/>
      <point x="390" y="1240" type="qcurve" smooth="yes"/>
      <point x="392" y="1345"/>
      <point x="325" y="1400"/>
      <point x="210" y="1400" type="qcurve" smooth="yes"/>
      <point x="94" y="1400"/>
      <point x="33" y="1354"/>
      <point x="30" y="1240" type="qcurve" smooth="yes"/>
      <point x="28" y="1153"/>
      <point x="42" y="917"/>
      <point x="40" y="730" type="qcurve" smooth="yes"/>
      <point x="38" y="565"/>
      <point x="26" y="287"/>
      <point x="30" y="160" type="qcurve" smooth="yes"/>
      <point x="29" y="90"/>
      <point x="95" y="0"/>
    </contour>
  </outline>
</glyph>
<glyph name="M" format="2">
  <advance width="1230"/>
  <unicode hex="004D"/>
  <outline>
    <contour>
      <point x="820" y="1373"/>
      <point x="647" y="900"/>
      <point x="620" y="900" type="qcurve" smooth="yes"/>
      <point x="570" y="900"/>
      <point x="398" y="1377"/>
      <point x="298" y="1420"/>
      <point x="220" y="1420" type="qcurve" smooth="yes"/>
      <point x="78" y="1420"/>
      <point x="20" y="1344"/>
      <point x="20" y="1230" type="qcurve" smooth="yes"/>
      <point x="20" y="1130"/>
      <point x="49" y="706"/>
      <point x="50" y="460" type="qcurve" smooth="yes"/>
      <point x="50" y="394"/>
      <point x="40" y="244"/>
      <point x="36" y="160" type="qcurve" smooth="yes"/>
      <point x="32" y="73"/>
      <point x="77" y="0"/>
      <point x="156" y="0" type="qcurve" smooth="yes"/>
      <point x="305" y="0"/>
      <point x="381" y="60"/>
      <point x="376" y="160" type="qcurve" smooth="yes"/>
      <point x="363" y="435"/>
      <point x="362" y="730"/>
      <point x="386" y="730" type="qcurve" smooth="yes"/>
      <point x="410" y="730"/>
      <point x="456" y="592"/>
      <point x="546" y="408"/>
      <point x="586" y="358"/>
      <point x="616" y="360" type="qcurve" smooth="yes"/>
      <point x="668" y="363"/>
      <point x="751" y="561"/>
      <point x="802" y="675"/>
      <point x="828" y="730"/>
      <point x="860" y="730" type="qcurve" smooth="yes"/>
      <point x="894" y="730"/>
      <point x="874" y="400"/>
      <point x="850" y="160" type="qcurve" smooth="yes"/>
      <point x="844" y="104"/>
      <point x="897" y="0"/>
      <point x="976" y="0" type="qcurve" smooth="yes"/>
      <point x="1139" y="0"/>
      <point x="1194" y="67"/>
      <point x="1196" y="160" type="qcurve" smooth="yes"/>
      <point x="1198" y="260"/>
      <point x="1180" y="543"/>
      <point x="1180" y="670" type="qcurve" smooth="yes"/>
      <point x="1180" y="761"/>
      <point x="1198" y="1187"/>
      <point x="1196" y="1260" type="qcurve" smooth="yes"/>
      <point x="1193" y="1360"/>
      <point x="1134" y="1420"/>
      <point x="1076" y="1420" type="qcurve" smooth="yes"/>
      <point x="876" y="1420"/>
    </contour>
  </outline>
</glyph>
<glyph name="N" format="2">
  <advance width="1050"/>
  <unicode hex="004E"/>
  <outline>
    <contour>
      <point x="220" y="0" type="qcurve" smooth="yes"/>
      <point x="318" y="0"/>
      <point x="390" y="77"/>
      <point x="390" y="130" type="qcurve" smooth="yes"/>
      <point x="390" y="224"/>
      <point x="360" y="510"/>
      <point x="346" y="632"/>
      <point x="364" y="670"/>
      <point x="380" y="670" type="qcurve" smooth="yes"/>
      <point x="406" y="670"/>
      <point x="558" y="390"/>
      <point x="660" y="90" type="qcurve" smooth="yes"/>
      <point x="681" y="29"/>
      <point x="758" y="0"/>
      <point x="840" y="0" type="qcurve" smooth="yes"/>
      <point x="949" y="0"/>
      <point x="1006" y="78"/>
      <point x="1010" y="160" type="qcurve" smooth="yes"/>
      <point x="1006" y="290"/>
      <point x="1000" y="580"/>
      <point x="1000" y="720" type="qcurve" smooth="yes"/>
      <point x="1000" y="839"/>
      <point x="1010" y="1103"/>
      <point x="1010" y="1240" type="qcurve" smooth="yes"/>
      <point x="1010" y="1336"/>
      <point x="938" y="1400"/>
      <point x="860" y="1400" type="qcurve" smooth="yes"/>
      <point x="760" y="1400"/>
      <point x="660" y="1344"/>
      <point x="653" y="1228"/>
      <point x="694" y="796"/>
      <point x="677" y="760"/>
      <point x="660" y="760" type="qcurve" smooth="yes"/>
      <point x="649" y="760"/>
      <point x="487" y="1004"/>
      <point x="380" y="1330" type="qcurve" smooth="yes"/>
      <point x="370" y="1361"/>
      <point x="311" y="1400"/>
      <point x="210" y="1400" type="qcurve" smooth="yes"/>
      <point x="105" y="1400"/>
      <point x="40" y="1350"/>
      <point x="40" y="1240" type="qcurve" smooth="yes"/>
      <point x="40" y="1151"/>
      <point x="50" y="875"/>
      <point x="50" y="720" type="qcurve" smooth="yes"/>
      <point x="50" y="568"/>
      <point x="40" y="329"/>
      <point x="40" y="130" type="qcurve" smooth="yes"/>
      <point x="40" y="49"/>
      <point x="112" y="0"/>
    </contour>
  </outline>
</glyph>
<glyph name="O" format="2">
  <advance width="940"/>
  <unicode hex="004F"/>
  <outline>
    <contour>
      <point x="470" y="-20" type="qcurve" smooth="yes"/>
      <point x="661" y="-20"/>
      <point x="905" y="172"/>
      <point x="910" y="700" type="qcurve"/>
      <point x="911" y="1173"/>
      <point x="683" y="1420"/>
      <point x="470" y="1420" type="qcurve" smooth="yes"/>
      <point x="264" y="1420"/>
      <point x="31" y="1185"/>
      <point x="30" y="700" type="qcurve"/>
      <point x="41" y="159"/>
      <point x="267" y="-20"/>
    </contour>
    <contour>
      <point x="470" y="260" type="qcurve" smooth="yes"/>
      <point x="421" y="260"/>
      <point x="364" y="362"/>
      <point x="360" y="700" type="qcurve"/>
      <point x="361" y="1045"/>
      <point x="407" y="1142"/>
      <point x="470" y="1140" type="qcurve" smooth="yes"/>
      <point x="532" y="1138"/>
      <point x="581" y="1037"/>
      <point x="580" y="700" type="qcurve"/>
      <point x="578" y="364"/>
      <point x="521" y="260"/>
    </contour>
  </outline>
</glyph>
<glyph name="P" format="2">
  <advance width="940"/>
  <unicode hex="0050"/>
  <outline>
    <contour>
      <point x="190" y="0" type="qcurve" smooth="yes"/>
      <point x="330" y="0"/>
      <point x="394" y="66"/>
      <point x="400" y="140" type="qcurve" smooth="yes"/>
      <point x="394" y="212"/>
      <point x="380" y="335"/>
      <point x="380" y="430" type="qcurve" smooth="yes"/>
      <point x="380" y="470"/>
      <point x="400" y="490"/>
      <point x="430" y="490" type="qcurve" smooth="yes"/>
      <point x="450" y="490"/>
      <point x="526" y="480"/>
      <point x="580" y="480" type="qcurve" smooth="yes"/>
      <point x="703" y="480"/>
      <point x="930" y="690"/>
      <point x="930" y="1000" type="qcurve" smooth="yes"/>
      <point x="930" y="1216"/>
      <point x="770" y="1400"/>
      <point x="630" y="1400" type="qcurve" smooth="yes"/>
      <point x="560" y="1400"/>
      <point x="471" y="1393"/>
      <point x="420" y="1390" type="qcurve" smooth="yes"/>
      <point x="350" y="1393"/>
      <point x="242" y="1400"/>
      <point x="150" y="1400" type="qcurve" smooth="yes"/>
      <point x="93" y="1400"/>
      <point x="36" y="1346"/>
      <point x="36" y="1260" type="qcurve" smooth="yes"/>
      <point x="36" y="1168"/>
      <point x="50" y="750"/>
      <point x="50" y="670" type="qcurve" smooth="yes"/>
      <point x="50" y="594"/>
      <point x="30" y="240"/>
      <point x="30" y="140" type="qcurve" smooth="yes"/>
      <point x="30" y="82"/>
      <point x="80" y="0"/>
    </contour>
    <contour>
      <point x="470" y="770" type="qcurve" smooth="yes"/>
      <point x="400" y="770"/>
      <point x="370" y="814"/>
      <point x="370" y="850" type="qcurve" smooth="yes"/>
      <point x="370" y="910"/>
      <point x="370" y="970"/>
      <point x="370" y="1050" type="qcurve" smooth="yes"/>
      <point x="370" y="1110"/>
      <point x="420" y="1150"/>
      <point x="460" y="1150" type="qcurve" smooth="yes"/>
      <point x="520" y="1150"/>
      <point x="580" y="1050"/>
      <point x="580" y="1000" type="qcurve" smooth="yes"/>
      <point x="580" y="880"/>
      <point x="540" y="770"/>
    </contour>
  </outline>
</glyph>
<glyph name="Q" format="2">
  <advance width="980"/>
  <unicode hex="0051"/>
  <outline>
    <contour>
      <point x="100" y="0" type="qcurve" smooth="yes"/>
      <point x="260" y="0"/>
      <point x="264" y="90"/>
      <point x="326" y="200"/>
      <point x="380" y="200" type="qcurve" smooth="yes"/>
      <point x="501" y="200"/>
      <point x="670" y="0"/>
      <point x="850" y="0" type="qcurve" smooth="yes"/>
      <point x="890" y="0"/>
      <point x="950" y="40"/>
      <point x="950" y="80" type="qcurve" smooth="yes"/>
      <point x="950" y="299"/>
      <point x="920" y="380"/>
      <point x="840" y="347"/>
      <point x="760" y="309"/>
      <point x="680" y="369"/>
      <point x="680" y="420" type="qcurve" smooth="yes"/>
      <point x="680" y="447"/>
      <point x="727" y="480"/>
      <point x="910" y="622"/>
      <point x="910" y="910" type="qcurve" smooth="yes"/>
      <point x="910" y="1175"/>
      <point x="679" y="1423"/>
      <point x="470" y="1420" type="qcurve" smooth="yes"/>
      <point x="225" y="1416"/>
      <point x="20" y="1159"/>
      <point x="20" y="920" type="qcurve" smooth="yes"/>
      <point x="20" y="700"/>
      <point x="144" y="491"/>
      <point x="230" y="434"/>
      <point x="230" y="400" type="qcurve" smooth="yes"/>
      <point x="230" y="380"/>
      <point x="90" y="314"/>
      <point x="20" y="148"/>
      <point x="20" y="39"/>
      <point x="42" y="0"/>
    </contour>
    <contour>
      <point x="470" y="660" type="qcurve" smooth="yes"/>
      <point x="420" y="660"/>
      <point x="350" y="800"/>
      <point x="350" y="890" type="qcurve" smooth="yes"/>
      <point x="350" y="1020"/>
      <point x="420" y="1140"/>
      <point x="480" y="1140" type="qcurve" smooth="yes"/>
      <point x="530" y="1140"/>
      <point x="580" y="1050"/>
      <point x="580" y="930" type="qcurve" smooth="yes"/>
      <point x="580" y="800"/>
      <point x="540" y="660"/>
    </contour>
  </outline>
</glyph>
<glyph name="S" format="2">
  <advance width="790"/>
  <unicode hex="0053"/>
  <outline>
    <contour>
      <point x="38" y="1006" type="qcurve" smooth="yes"/>
      <point x="38" y="932"/>
      <point x="88" y="814"/>
      <point x="186" y="700"/>
      <point x="312" y="576" type="qcurve" smooth="yes"/>
      <point x="358" y="532"/>
      <point x="418" y="458"/>
      <point x="436" y="406"/>
      <point x="436" y="376" type="qcurve" smooth="yes"/>
      <point x="436" y="344"/>
      <point x="384" y="290"/>
      <point x="324" y="270"/>
      <point x="304" y="270" type="qcurve" smooth="yes"/>
      <point x="240" y="270"/>
      <point x="112" y="330"/>
      <point x="90" y="330" type="qcurve" smooth="yes"/>
      <point x="56" y="330"/>
      <point x="20" y="247"/>
      <point x="20" y="110" type="qcurve" smooth="yes"/>
      <point x="20" y="54"/>
      <point x="141" y="-10"/>
      <point x="312" y="-10" type="qcurve" smooth="yes"/>
      <point x="420" y="-10"/>
      <point x="504" y="12" type="qcurve" smooth="yes"/>
      <point x="574" y="32"/>
      <point x="684" y="112"/>
      <point x="718" y="162" type="qcurve" smooth="yes"/>
      <point x="754" y="216"/>
      <point x="772" y="338"/>
      <point x="772" y="416" type="qcurve" smooth="yes"/>
      <point x="772" y="566"/>
      <point x="634" y="792"/>
      <point x="486" y="914" type="qcurve" smooth="yes"/>
      <point x="428" y="960"/>
      <point x="390" y="1026"/>
      <point x="390" y="1072" type="qcurve" smooth="yes"/>
      <point x="390" y="1152"/>
      <point x="476" y="1152" type="qcurve" smooth="yes"/>
      <point x="513" y="1152"/>
      <point x="590" y="1130"/>
      <point x="638" y="1130" type="qcurve" smooth="yes"/>
      <point x="730" y="1130"/>
      <point x="730" y="1190" type="qcurve" smooth="yes"/>
      <point x="730" y="1346"/>
      <point x="550" y="1430"/>
      <point x="452" y="1430" type="qcurve" smooth="yes"/>
      <point x="226" y="1430"/>
      <point x="38" y="1206"/>
    </contour>
  </outline>
</glyph>
<glyph name="T" format="2">
  <advance width="780"/>
  <unicode hex="0054"/>
  <outline>
    <contour>
      <point x="390" y="0" type="qcurve" smooth="yes"/>
      <point x="490" y="0"/>
      <point x="560" y="50"/>
      <point x="560" y="140" type="qcurve" smooth="yes"/>
      <point x="560" y="280"/>
      <point x="550" y="423"/>
      <point x="550" y="580" type="qcurve" smooth="yes"/>
      <point x="550" y="730"/>
      <point x="556" y="920"/>
      <point x="560" y="1050" type="qcurve" smooth="yes"/>
      <point x="561" y="1090"/>
      <point x="580" y="1120"/>
      <point x="610" y="1120" type="qcurve" smooth="yes"/>
      <point x="640" y="1120"/>
      <point x="670" y="1110"/>
      <point x="700" y="1110" type="qcurve" smooth="yes"/>
      <point x="733" y="1110"/>
      <point x="760" y="1150"/>
      <point x="760" y="1260" type="qcurve" smooth="yes"/>
      <point x="760" y="1350"/>
      <point x="710" y="1400"/>
      <point x="660" y="1400" type="qcurve" smooth="yes"/>
      <point x="597" y="1400"/>
      <point x="477" y="1390"/>
      <point x="390" y="1390" type="qcurve" smooth="yes"/>
      <point x="279" y="1390"/>
      <point x="163" y="1400"/>
      <point x="110" y="1400" type="qcurve" smooth="yes"/>
      <point x="60" y="1400"/>
      <point x="20" y="1350"/>
      <point x="20" y="1260" type="qcurve" smooth="yes"/>
      <point x="20" y="1153"/>
      <point x="47" y="1110"/>
      <point x="70" y="1110" type="qcurve" smooth="yes"/>
      <point x="100" y="1110"/>
      <point x="140" y="1120"/>
      <point x="170" y="1120" type="qcurve" smooth="yes"/>
      <point x="200" y="1120"/>
      <point x="217" y="1090"/>
      <point x="220" y="1050" type="qcurve" smooth="yes"/>
      <point x="230" y="920"/>
      <point x="230" y="750"/>
      <point x="230" y="580" type="qcurve" smooth="yes"/>
      <point x="230" y="424"/>
      <point x="220" y="277"/>
      <point x="220" y="140" type="qcurve" smooth="yes"/>
      <point x="220" y="50"/>
      <point x="290" y="0"/>
    </contour>
  </outline>
</glyph>
<glyph name="U" format="2">
  <advance width="950"/>
  <unicode hex="0055"/>
  <outline>
    <contour>
      <point x="910" y="410" type="qcurve" smooth="yes"/>
      <point x="913" y="505"/>
      <point x="890" y="800"/>
      <point x="890" y="840" type="qcurve" smooth="yes"/>
      <point x="890" y="893"/>
      <point x="911" y="1208"/>
      <point x="914" y="1262" type="qcurve" smooth="yes"/>
      <point x="914" y="1318"/>
      <point x="838" y="1420"/>
      <point x="794" y="1420" type="qcurve" smooth="yes"/>
      <point x="645" y="1420"/>
      <point x="574" y="1318"/>
      <point x="573" y="1214"/>
      <point x="597" y="851"/>
      <point x="597" y="727"/>
      <point x="593" y="350"/>
      <point x="574" y="270"/>
      <point x="484" y="270" type="qcurve" smooth="yes"/>
      <point x="436" y="270"/>
      <point x="374" y="336"/>
      <point x="350" y="789"/>
      <point x="351" y="877"/>
      <point x="371" y="1215"/>
      <point x="374" y="1318"/>
      <point x="356" y="1386"/>
      <point x="258" y="1420"/>
      <point x="210" y="1420" type="qcurve" smooth="yes"/>
      <point x="100" y="1420"/>
      <point x="33" y="1325"/>
      <point x="38" y="1095"/>
      <point x="47" y="993"/>
      <point x="50" y="900"/>
      <point x="50" y="830" type="qcurve" smooth="yes"/>
      <point x="51" y="783"/>
      <point x="30" y="512"/>
      <point x="30" y="420" type="qcurve" smooth="yes"/>
      <point x="30" y="250"/>
      <point x="94" y="98"/>
      <point x="208" y="24"/>
      <point x="370" y="-10"/>
      <point x="484" y="-10" type="qcurve" smooth="yes"/>
      <point x="592" y="-10"/>
      <point x="770" y="30"/>
      <point x="874" y="124"/>
      <point x="914" y="270"/>
    </contour>
  </outline>
</glyph>
<glyph name="V" format="2">
  <advance width="1000"/>
  <unicode hex="0056"/>
  <outline>
    <contour>
      <point x="571" y="788"/>
      <point x="552" y="442"/>
      <point x="543" y="350"/>
      <point x="482" y="353"/>
      <point x="464" y="436"/>
      <point x="440" y="780"/>
      <point x="401" y="1254"/>
      <point x="358" y="1386"/>
      <point x="304" y="1424"/>
      <point x="166" y="1424" type="qcurve" smooth="yes"/>
      <point x="68" y="1424"/>
      <point x="20" y="1376"/>
      <point x="20" y="1332" type="qcurve" smooth="yes"/>
      <point x="20" y="1246"/>
      <point x="149" y="670"/>
      <point x="188" y="344"/>
      <point x="230" y="160" type="qcurve" smooth="yes"/>
      <point x="266" y="-12"/>
      <point x="530" y="0" type="qcurve" smooth="yes"/>
      <point x="786" y="4"/>
      <point x="810" y="290" type="qcurve" smooth="yes"/>
      <point x="838" y="619"/>
      <point x="967" y="1198"/>
      <point x="980" y="1386"/>
      <point x="912" y="1422"/>
      <point x="840" y="1422" type="qcurve" smooth="yes"/>
      <point x="695" y="1422"/>
      <point x="634" y="1264"/>
    </contour>
  </outline>
</glyph>
<glyph name="W" format="2">
  <advance width="1430"/>
  <unicode hex="0057"/>
  <outline>
    <contour>
      <point x="380" y="-10" type="qcurve" smooth="yes"/>
      <point x="548" y="-10"/>
      <point x="573" y="1"/>
      <point x="632" y="88"/>
      <point x="671" y="248"/>
      <point x="690" y="378"/>
      <point x="747" y="384"/>
      <point x="784" y="260"/>
      <point x="850" y="0"/>
      <point x="1060" y="0" type="qcurve" smooth="yes"/>
      <point x="1093" y="0"/>
      <point x="1186" y="24"/>
      <point x="1220" y="84"/>
      <point x="1293" y="780"/>
      <point x="1403" y="1152"/>
      <point x="1405" y="1392"/>
      <point x="1133" y="1410"/>
      <point x="1030" y="1312"/>
      <point x="1060" y="469"/>
      <point x="900" y="459"/>
      <point x="834" y="900"/>
      <point x="890" y="1300"/>
      <point x="866" y="1404"/>
      <point x="570" y="1409"/>
      <point x="530" y="1285"/>
      <point x="584" y="909"/>
      <point x="550" y="459"/>
      <point x="440" y="449"/>
      <point x="360" y="890"/>
      <point x="348" y="1357"/>
      <point x="314" y="1406"/>
      <point x="42" y="1406"/>
      <point x="20" y="1267"/>
      <point x="105" y="960"/>
      <point x="226" y="118"/>
      <point x="320" y="-10"/>
    </contour>
  </outline>
</glyph>
<glyph name="X" format="2">
  <advance width="1020"/>
  <unicode hex="0058"/>
  <outline>
    <contour>
      <point x="160" y="0" type="qcurve" smooth="yes"/>
      <point x="374" y="2"/>
      <point x="410" y="270"/>
      <point x="473" y="490"/>
      <point x="510" y="493"/>
      <point x="580" y="280"/>
      <point x="610" y="0"/>
      <point x="1004" y="-6"/>
      <point x="1004" y="70"/>
      <point x="934" y="276"/>
      <point x="750" y="728"/>
      <point x="750" y="750" type="qcurve" smooth="yes"/>
      <point x="750" y="776"/>
      <point x="980" y="1304"/>
      <point x="980" y="1348"/>
      <point x="928" y="1400"/>
      <point x="850" y="1400" type="qcurve" smooth="yes"/>
      <point x="747" y="1400"/>
      <point x="650" y="1380"/>
      <point x="608" y="1256"/>
      <point x="520" y="950"/>
      <point x="490" y="950"/>
      <point x="454" y="1152"/>
      <point x="420" y="1278"/>
      <point x="370" y="1390"/>
      <point x="335" y="1399"/>
      <point x="97" y="1401"/>
      <point x="40" y="1402"/>
      <point x="40" y="1303"/>
      <point x="246" y="776"/>
      <point x="250" y="750" type="qcurve" smooth="yes"/>
      <point x="246" y="728"/>
      <point x="20" y="125"/>
      <point x="24" y="-1"/>
    </contour>
  </outline>
</glyph>
<glyph name="Y" format="2">
  <advance width="1000"/>
  <unicode hex="0059"/>
  <outline>
    <contour>
      <point x="490" y="0" type="qcurve" smooth="yes"/>
      <point x="596" y="0"/>
      <point x="660" y="51"/>
      <point x="660" y="100" type="qcurve" smooth="yes"/>
      <point x="660" y="150"/>
      <point x="650" y="217"/>
      <point x="650" y="270" type="qcurve" smooth="yes"/>
      <point x="650" y="339"/>
      <point x="650" y="440"/>
      <point x="660" y="480" type="qcurve" smooth="yes"/>
      <point x="676" y="545"/>
      <point x="803" y="883"/>
      <point x="980" y="1280"/>
      <point x="980" y="1330" type="qcurve" smooth="yes"/>
      <point x="980" y="1371"/>
      <point x="950" y="1400"/>
      <point x="820" y="1400" type="qcurve" smooth="yes"/>
      <point x="693" y="1400"/>
      <point x="635" y="1374"/>
      <point x="620" y="1330" type="qcurve" smooth="yes"/>
      <point x="601" y="1273"/>
      <point x="580" y="1105"/>
      <point x="530" y="920"/>
      <point x="510" y="920" type="qcurve" smooth="yes"/>
      <point x="490" y="920"/>
      <point x="437" y="1097"/>
      <point x="388" y="1303"/>
      <point x="370" y="1340" type="qcurve" smooth="yes"/>
      <point x="350" y="1380"/>
      <point x="304" y="1400"/>
      <point x="210" y="1400" type="qcurve" smooth="yes"/>
      <point x="66" y="1400"/>
      <point x="20" y="1366"/>
      <point x="20" y="1330" type="qcurve" smooth="yes"/>
      <point x="20" y="1269"/>
      <point x="199" y="870"/>
      <point x="299" y="563"/>
      <point x="320" y="480" type="qcurve" smooth="yes"/>
      <point x="330" y="440"/>
      <point x="330" y="340"/>
      <point x="330" y="270" type="qcurve" smooth="yes"/>
      <point x="330" y="210"/>
      <point x="320" y="142"/>
      <point x="320" y="100" type="qcurve" smooth="yes"/>
      <point x="320" y="47"/>
      <point x="380" y="0"/>
    </contour>
  </outline>
</glyph>
<glyph name="Z" format="2">
  <advance width="900"/>
  <unicode hex="005A"/>
  <outline>
    <contour>
      <point x="448" y="356" type="line"/>
      <point x="714" y="896"/>
      <point x="766" y="1000" type="qcurve" smooth="yes"/>
      <point x="784" y="1036"/>
      <point x="846" y="1150"/>
      <point x="854" y="1192"/>
      <point x="854" y="1214" type="qcurve" smooth="yes"/>
      <point x="854" y="1306"/>
      <point x="830" y="1392"/>
      <point x="763" y="1430"/>
      <point x="678" y="1420" type="qcurve" smooth="yes"/>
      <point x="590" y="1410"/>
      <point x="450" y="1410"/>
      <point x="290" y="1410"/>
      <point x="182" y="1420" type="qcurve" smooth="yes"/>
      <point x="137" y="1424"/>
      <point x="80" y="1390"/>
      <point x="62" y="1330"/>
      <point x="62" y="1280" type="qcurve" smooth="yes"/>
      <point x="62" y="1232" type="line" smooth="yes"/>
      <point x="62" y="1180"/>
      <point x="118" y="1140"/>
      <point x="168" y="1140" type="qcurve" smooth="yes"/>
      <point x="320" y="1144" type="line"/>
      <point x="416" y="1144" type="line" smooth="yes"/>
      <point x="448" y="1144"/>
      <point x="474" y="1122"/>
      <point x="474" y="1108" type="qcurve" smooth="yes"/>
      <point x="474" y="1098"/>
      <point x="466" y="1082" type="qcurve" smooth="yes"/>
      <point x="278" y="736"/>
      <point x="136" y="464" type="qcurve" smooth="yes"/>
      <point x="116" y="424"/>
      <point x="44" y="302"/>
      <point x="32" y="258"/>
      <point x="32" y="236" type="qcurve" smooth="yes"/>
      <point x="32" y="138" type="line" smooth="yes"/>
      <point x="32" y="76"/>
      <point x="86" y="0"/>
      <point x="158" y="0" type="qcurve" smooth="yes"/>
      <point x="319" y="10"/>
      <point x="440" y="10" type="qcurve" smooth="yes"/>
      <point x="590" y="10"/>
      <point x="700" y="10"/>
      <point x="780" y="0" type="qcurve" smooth="yes"/>
      <point x="839" y="-7"/>
      <point x="872" y="28"/>
      <point x="872" y="58" type="qcurve" smooth="yes"/>
      <point x="872" y="200" type="line" smooth="yes"/>
      <point x="872" y="310"/>
      <point x="762" y="304" type="qcurve" smooth="yes"/>
      <point x="679" y="299"/>
      <point x="600" y="290"/>
      <point x="552" y="290"/>
      <point x="500" y="290" type="qcurve" smooth="yes"/>
      <point x="460" y="290"/>
      <point x="438" y="320" type="qcurve"/>
    </contour>
  </outline>
</glyph>
<glyph name="emdash" format="2">
  <advance width="1230"/>
  <unicode hex="2014"/>
  <note>
emdash
</note>
  <outline>
    <contour>
      <point x="126" y="600" type="qcurve" smooth="yes"/>
      <point x="1108" y="600" type="line" smooth="yes"/>
      <point x="1154" y="600"/>
      <point x="1194" y="633"/>
      <point x="1194" y="680" type="qcurve" smooth="yes"/>
      <point x="1194" y="800" type="line" smooth="yes"/>
      <point x="1194" y="847"/>
      <point x="1152" y="880"/>
      <point x="1108" y="880" type="qcurve" smooth="yes"/>
      <point x="126" y="880" type="line" smooth="yes"/>
      <point x="62" y="880"/>
      <point x="34" y="826"/>
      <point x="34" y="800" type="qcurve" smooth="yes"/>
      <point x="34" y="680" type="line" smooth="yes"/>
      <point x="34" y="640"/>
      <point x="74" y="600"/>
    </contour>
  </outline>
</glyph>
<glyph name="R.alt.001" format="2">
  <advance width="970"/>
  <outline>
    <contour>
      <point x="190" y="0" type="qcurve" smooth="yes"/>
      <point x="330" y="0"/>
      <point x="380" y="63"/>
      <point x="380" y="160" type="qcurve" smooth="yes"/>
      <point x="380" y="200"/>
      <point x="370" y="314"/>
      <point x="370" y="350" type="qcurve" smooth="yes"/>
      <point x="370" y="400"/>
      <point x="376" y="480"/>
      <point x="400" y="480" type="qcurve" smooth="yes"/>
      <point x="444" y="480"/>
      <point x="478" y="384"/>
      <point x="490" y="340" type="qcurve" smooth="yes"/>
      <point x="523" y="219"/>
      <point x="688" y="-10"/>
      <point x="850" y="-10" type="qcurve" smooth="yes"/>
      <point x="1008" y="-10"/>
      <point x="1160" y="147"/>
      <point x="1160" y="270" type="qcurve" smooth="yes"/>
      <point x="1160" y="343"/>
      <point x="1100" y="400"/>
      <point x="1050" y="400" type="qcurve" smooth="yes"/>
      <point x="1000" y="400"/>
      <point x="906" y="370"/>
      <point x="850" y="370" type="qcurve" smooth="yes"/>
      <point x="790" y="370"/>
      <point x="700" y="464"/>
      <point x="700" y="520" type="qcurve" smooth="yes"/>
      <point x="700" y="567"/>
      <point x="813" y="632"/>
      <point x="930" y="784"/>
      <point x="930" y="960" type="qcurve" smooth="yes"/>
      <point x="930" y="1234"/>
      <point x="694" y="1400"/>
      <point x="610" y="1400" type="qcurve" smooth="yes"/>
      <point x="549" y="1400"/>
      <point x="463" y="1390"/>
      <point x="380" y="1390" type="qcurve" smooth="yes"/>
      <point x="305" y="1390"/>
      <point x="222" y="1400"/>
      <point x="160" y="1400" type="qcurve" smooth="yes"/>
      <point x="98" y="1400"/>
      <point x="40" y="1348"/>
      <point x="40" y="1290" type="qcurve" smooth="yes"/>
      <point x="40" y="1072"/>
      <point x="50" y="754"/>
      <point x="50" y="630" type="qcurve" smooth="yes"/>
      <point x="50" y="458"/>
      <point x="31" y="271"/>
      <point x="30" y="160" type="qcurve" smooth="yes"/>
      <point x="29" y="53"/>
      <point x="90" y="0"/>
    </contour>
    <contour>
      <point x="450" y="760" type="qcurve" smooth="yes"/>
      <point x="411" y="760"/>
      <point x="370" y="798"/>
      <point x="370" y="950" type="qcurve" smooth="yes"/>
      <point x="370" y="1090"/>
      <point x="400" y="1130"/>
      <point x="450" y="1130" type="qcurve" smooth="yes"/>
      <point x="500" y="1130"/>
      <point x="580" y="1041"/>
      <point x="580" y="940" type="qcurve" smooth="yes"/>
      <point x="580" y="830"/>
      <point x="524" y="760"/>
    </contour>
  </outline>
</glyph>
